<svg xmlns="http://www.w3.org/2000/svg" viewBox="0 0 1600 900" fill="none">
  <image href="./cover-photo.png" width="1600" height="900" preserveAspectRatio="xMidYMid slice"/>
  <rect width="1600" height="900" fill="url(#vignette)"/>

  <g opacity=".6" filter="url(#logo-shadow)" transform="translate(1018 350) scale(4.35)">
    <path
      d="M4 32V12.5C4 6.7 8.7 2 14.5 2H15.5C21.3 2 26 6.7 26 12.5V32"
      stroke="#F6F1E8"
      stroke-width="3"
      stroke-linecap="round"
      stroke-linejoin="round"
    />
    <path
      d="M15 8V29"
      stroke="#F6F1E8"
      stroke-width="2.4"
      stroke-linecap="round"
    />
    <path d="M15 10.5 10.6 8.2V12.1L15 14.2V10.5Z" fill="#F6F1E8"/>
    <path d="M15 16.2 10.2 13.8V17.9L15 20.1V16.2Z" fill="#F6F1E8"/>
    <path d="M15 22 10.6 19.8V23.7L15 25.8V22Z" fill="#F6F1E8"/>
    <path d="M15 10.5 19.4 8.2V12.1L15 14.2V10.5Z" fill="#F6F1E8"/>
    <path d="M15 16.2 19.8 13.8V17.9L15 20.1V16.2Z" fill="#F6F1E8"/>
    <path d="M15 22 19.4 19.8V23.7L15 25.8V22Z" fill="#F6F1E8"/>
  </g>

  <defs>
    <linearGradient id="vignette" x1="800" y1="0" x2="800" y2="900" gradientUnits="userSpaceOnUse">
      <stop stop-color="#0D1118" stop-opacity=".12"/>
      <stop offset=".52" stop-color="#0D1118" stop-opacity="0"/>
      <stop offset="1" stop-color="#0D1118" stop-opacity=".22"/>
    </linearGradient>
    <filter id="logo-shadow" x="1000" y="340" width="150" height="180" filterUnits="userSpaceOnUse" color-interpolation-filters="sRGB">
      <feDropShadow dx="0" dy="2" stdDeviation="2.5" flood-color="#0D1118" flood-opacity=".28"/>
    </filter>
  </defs>
</svg>
