<svg width="64" height="64" viewBox="0 0 64 64" fill="none" xmlns="http://www.w3.org/2000/svg">
  <rect x="2" y="2" width="60" height="60" rx="16" fill="#0D1118"/>
  <rect x="2" y="2" width="60" height="60" rx="16" stroke="#D19A29" stroke-opacity="0.18" stroke-width="2"/>
  <g transform="translate(12 7) scale(1.4)">
    <path
      d="M4 32V12.5C4 6.7 8.7 2 14.5 2H15.5C21.3 2 26 6.7 26 12.5V32"
      stroke="#D19A29"
      stroke-width="3"
      stroke-linecap="round"
      stroke-linejoin="round"
    />
    <path
      d="M15 8V29"
      stroke="#D19A29"
      stroke-width="2.4"
      stroke-linecap="round"
    />
    <path d="M15 10.5 10.6 8.2V12.1L15 14.2V10.5Z" fill="#D19A29"/>
    <path d="M15 16.2 10.2 13.8V17.9L15 20.1V16.2Z" fill="#D19A29"/>
    <path d="M15 22 10.6 19.8V23.7L15 25.8V22Z" fill="#D19A29"/>
    <path d="M15 10.5 19.4 8.2V12.1L15 14.2V10.5Z" fill="#D19A29"/>
    <path d="M15 16.2 19.8 13.8V17.9L15 20.1V16.2Z" fill="#D19A29"/>
    <path d="M15 22 19.4 19.8V23.7L15 25.8V22Z" fill="#D19A29"/>
  </g>
</svg>
