<svg xmlns="http://www.w3.org/2000/svg" viewBox="0 0 1600 900" fill="none">
  <rect width="1600" height="900" fill="#0D1118"/>
  <rect width="1600" height="900" fill="url(#bg)"/>
  <circle cx="360" cy="420" r="150" fill="#141C2B" stroke="#D19A29" stroke-width="4"/>
  <circle cx="360" cy="420" r="88" fill="#D19A29" fill-opacity=".12"/>
  <circle cx="360" cy="420" r="22" fill="#D19A29"/>
  <circle cx="800" cy="420" r="150" fill="#141C2B" stroke="#D19A29" stroke-width="4"/>
  <path d="M750 360h100M720 420h160M740 480h120" stroke="#D19A29" stroke-width="10" stroke-linecap="round"/>
  <circle cx="1240" cy="420" r="150" fill="#141C2B" stroke="#D19A29" stroke-width="4"/>
  <path d="M1185 330h110l-18 250c-2 20-18 35-39 35h-10c-21 0-37-15-39-35l-4-57" stroke="#E7E5E1" stroke-width="10" stroke-linejoin="round"/>
  <path d="M1185 330h110" stroke="#E7E5E1" stroke-width="10" stroke-linecap="round"/>
  <path d="M1204 423c18-23 32-20 52-3 20 16 34 13 43-2" stroke="#D19A29" stroke-width="8" stroke-linecap="round"/>
  <text x="130" y="130" fill="#D19A29" font-size="28" font-family="Inter, Arial, sans-serif" letter-spacing="4">BRYGGETIPS</text>
  <text x="130" y="790" fill="#E7E5E1" font-size="82" font-family="Oswald, Arial Narrow, sans-serif">KLARHET ER EN KJEDE AV GODE VALG</text>
  <text x="132" y="840" fill="#E7E5E1" fill-opacity=".72" font-size="28" font-family="Inter, Arial, sans-serif">Kok, klaringsmiddel, cold crash og rolig overføring.</text>
  <defs>
    <linearGradient id="bg" x1="800" y1="0" x2="800" y2="900" gradientUnits="userSpaceOnUse">
      <stop stop-color="#101521"/>
      <stop offset="1" stop-color="#0A0F17"/>
    </linearGradient>
  </defs>
</svg>
