<svg xmlns="http://www.w3.org/2000/svg" viewBox="0 0 1600 900" fill="none">
  <rect width="1600" height="900" fill="#0D1118"/>
  <rect width="1600" height="900" fill="url(#bg)"/>
  <rect x="220" y="250" width="220" height="160" rx="24" fill="#141C2B" stroke="#D19A29" stroke-width="3"/>
  <rect x="500" y="250" width="220" height="160" rx="24" fill="#141C2B" stroke="#D19A29" stroke-width="3"/>
  <rect x="780" y="250" width="220" height="160" rx="24" fill="#141C2B" stroke="#D19A29" stroke-width="3"/>
  <rect x="1060" y="250" width="220" height="160" rx="24" fill="#141C2B" stroke="#D19A29" stroke-width="3"/>
  <rect x="360" y="470" width="220" height="160" rx="24" fill="#141C2B" stroke="#D19A29" stroke-width="3"/>
  <rect x="640" y="470" width="220" height="160" rx="24" fill="#141C2B" stroke="#D19A29" stroke-width="3"/>
  <rect x="920" y="470" width="220" height="160" rx="24" fill="#141C2B" stroke="#D19A29" stroke-width="3"/>
  <path d="M290 330h80M570 330h80M850 330h80M1130 330h80M430 550h80M710 550h80M990 550h80" stroke="#D19A29" stroke-width="10" stroke-linecap="round"/>
  <circle cx="330" cy="330" r="22" fill="#D19A29" fill-opacity=".2"/>
  <circle cx="610" cy="330" r="22" fill="#D19A29" fill-opacity=".2"/>
  <circle cx="890" cy="330" r="22" fill="#D19A29" fill-opacity=".2"/>
  <circle cx="1170" cy="330" r="22" fill="#D19A29" fill-opacity=".2"/>
  <circle cx="470" cy="550" r="22" fill="#D19A29" fill-opacity=".2"/>
  <circle cx="750" cy="550" r="22" fill="#D19A29" fill-opacity=".2"/>
  <circle cx="1030" cy="550" r="22" fill="#D19A29" fill-opacity=".2"/>
  <text x="130" y="130" fill="#D19A29" font-size="28" font-family="Inter, Arial, sans-serif" letter-spacing="4">SMÅ DETALJER</text>
  <text x="130" y="790" fill="#E7E5E1" font-size="82" font-family="Oswald, Arial Narrow, sans-serif">DET ER HELHETEN SOM GJØR ØLET BEDRE</text>
  <text x="132" y="840" fill="#E7E5E1" fill-opacity=".72" font-size="28" font-family="Inter, Arial, sans-serif">Rengjøring, temperatur, rolig overføring og gode rutiner hele veien.</text>
  <defs>
    <linearGradient id="bg" x1="800" y1="0" x2="800" y2="900" gradientUnits="userSpaceOnUse">
      <stop stop-color="#101521"/>
      <stop offset="1" stop-color="#0A0F17"/>
    </linearGradient>
  </defs>
</svg>
